<svg xmlns="http://www.w3.org/2000/svg" viewBox="0 0 278.35 268.5"><defs><style>.cls-1{opacity:0.3;}.cls-2,.cls-4{fill:#f26c66;}.cls-3{fill:#c2e6d1;fill-opacity:0.2;}.cls-3,.cls-4,.cls-5{stroke:#a78d6f;stroke-linecap:round;stroke-linejoin:round;stroke-width:2px;}.cls-4{fill-opacity:0.1;}.cls-4,.cls-5{stroke-opacity:0.3;}.cls-5{fill:#cabba9;fill-opacity:0.3;}</style></defs><title>cogs_1</title><g id="Layer_2" data-name="Layer 2"><g id="no_task" data-name="no task"><g class="cls-1"><path class="cls-2" d="M202.46,30.67c.35,1.93.65,3.85.9,5.78s.47,3.86.7,5.79.4,3.87.55,5.8.32,3.87.43,5.81l-2.14-1.2c2.32-1.31,4.63-2.63,7-3.87s4.71-2.49,7.08-3.7c4.78-2.36,9.6-4.66,14.62-6.58-4.3,3.22-8.82,6.06-13.37,8.84-2.29,1.36-4.59,2.72-6.92,4s-4.66,2.57-7,3.84h0a1.45,1.45,0,0,1-2-.59,1.56,1.56,0,0,1-.17-.62c-.08-1.94-.09-3.88-.14-5.82s0-3.88,0-5.82,0-3.89.13-5.84S202.3,32.62,202.46,30.67Z"/><circle class="cls-2" cx="203.75" cy="53.75" r="2.06"/></g><path class="cls-3" d="M189.1,166c0-1.47,0-2.94-.11-4.4l15.2-3.95-3.13-17.71-15.51,1.47a85.44,85.44,0,0,0-3.25-9.1l12.91-8.9-9-15.58-14.08,6.7A87.85,87.85,0,0,0,166,107.1l9.1-12.8L161.28,82.74,150.33,93.85A86.62,86.62,0,0,0,142,89l4.17-15.12-16.9-6.15-6.48,14.17a85.17,85.17,0,0,0-9.51-1.71L112,64.5H94L92.78,80.05a85.18,85.18,0,0,0-9.52,1.61L76.73,67.4l-16.9,6.15,4.15,15a86.81,86.81,0,0,0-8.4,4.8l-11-11.18L30.79,93.75l9,12.71a89.75,89.75,0,0,0-6.25,7.37L19.4,107.09l-9,15.58,12.83,8.84a85.5,85.5,0,0,0-3.36,9.07L4.27,139.1,1.15,156.81l15.1,3.93c-.11,1.74-.17,3.49-.17,5.26,0,1.47,0,2.94.11,4.4L1,174.35l3.12,17.71,15.51-1.47a85.49,85.49,0,0,0,3.26,9.1L10,208.59l9,15.58,14.08-6.7a87.85,87.85,0,0,0,6.18,7.43l-9.11,12.8,13.78,11.56,11-11.11A86.62,86.62,0,0,0,63.2,243L59,258.16l16.9,6.15,6.48-14.17a85.17,85.17,0,0,0,9.51,1.71l1.25,15.65h18L112.4,252a85,85,0,0,0,9.53-1.61l6.53,14.26,16.9-6.15-4.15-15a85.47,85.47,0,0,0,8.39-4.8l11,11.18,13.78-11.56-9-12.71a89.75,89.75,0,0,0,6.25-7.37l14.17,6.74,9-15.58L182,200.49a87.75,87.75,0,0,0,3.36-9.07l15.61,1.48L204,175.19l-15.1-3.93C189.05,169.52,189.1,167.77,189.1,166Z"/><path class="cls-4" d="M256.09,58.46V47.54l-17.41-.95a35.59,35.59,0,0,0-1.43-5.34l14.61-9.52-5.46-9.46-15.56,7.89a36,36,0,0,0-3.91-3.9l7.89-15.56-9.45-5.46-9.53,14.6a34.11,34.11,0,0,0-5.34-1.42L209.55,1H198.63l-.94,17.42a33.82,33.82,0,0,0-5.34,1.42l-9.53-14.6-9.45,5.46,7.89,15.56a35.12,35.12,0,0,0-3.91,3.9l-15.56-7.89-5.46,9.46,14.6,9.52a35.56,35.56,0,0,0-1.42,5.34l-17.42.95V58.46l17.42.95a35.56,35.56,0,0,0,1.42,5.34l-14.6,9.52,5.46,9.46,15.56-7.89a35.12,35.12,0,0,0,3.91,3.9L173.37,95.3l9.45,5.46,9.53-14.6a33.82,33.82,0,0,0,5.34,1.42l.94,17.42h10.92l.95-17.42a34.11,34.11,0,0,0,5.34-1.42l9.53,14.6,9.45-5.46-7.89-15.56a36,36,0,0,0,3.91-3.9l15.56,7.89,5.46-9.46-14.61-9.52a35.59,35.59,0,0,0,1.43-5.34Z"/><path class="cls-5" d="M262,137.82l15.4-3.35-1.79-10.14L260,126.45a22.24,22.24,0,0,0-2.19-3.79l9.64-12.46-7.88-6.62-10.6,11.65a23.17,23.17,0,0,0-4.11-1.5L244.18,98H233.89l-.63,15.73a23.27,23.27,0,0,0-4.12,1.5l-10.59-11.65-7.89,6.62,9.64,12.46a22.93,22.93,0,0,0-2.19,3.79l-15.61-2.12-1.78,10.14,15.39,3.35a23.54,23.54,0,0,0,.75,4.31l-13.31,8.41,5.15,8.92,13.94-7.33a23.64,23.64,0,0,0,3.35,2.81l-4.79,15,9.67,3.52,6-14.58c.72.07,1.45.11,2.19.11s1.47,0,2.19-.11l6,14.58,9.67-3.52-4.79-15a22.57,22.57,0,0,0,3.35-2.81l14,7.33,5.14-8.92-13.31-8.41A22.72,22.72,0,0,0,262,137.82Z"/><path class="cls-2" d="M66.59,134c3.38,2.6,6.7,5.28,10,8s6.49,5.49,9.73,8.25,6.4,5.58,9.56,8.42,6.3,5.69,9.42,8.57l-3.26-.06c4.61-4.15,9.28-8.23,14-12.29s9.43-8.07,14.22-12,9.6-7.85,14.5-11.67,9.82-7.61,14.91-11.21c-4.24,4.57-8.64,8.95-13.08,13.29s-9,8.59-13.5,12.83-9.16,8.37-13.79,12.49-9.31,8.2-14,12.21l0,0a2.4,2.4,0,0,1-3.21-.1q-4.58-4.42-9.08-8.93c-3-3-6-6.05-8.94-9.08s-5.9-6.11-8.77-9.25S69.38,137.23,66.59,134Z"/><circle class="cls-2" cx="103.59" cy="168.5" r="4.5"/><g class="cls-1"><path class="cls-2" d="M224.59,121.5c1.47.89,2.91,1.81,4.32,2.78s2.79,1.94,4.18,2.92c2.75,2,5.45,4.07,8.1,6.18l-1.76-.06a52.06,52.06,0,0,1,5.75-3.87c1-.59,2-1.13,3.1-1.63a24,24,0,0,1,3.31-1.32,23.35,23.35,0,0,1-2.35,2.68c-.82.84-1.68,1.62-2.57,2.38a53.48,53.48,0,0,1-5.57,4.13l-.07,0a1.4,1.4,0,0,1-1.69-.11c-2.57-2.22-5.1-4.48-7.57-6.82-1.22-1.19-2.46-2.35-3.65-3.57S225.74,122.78,224.59,121.5Z"/><circle class="cls-2" cx="240.37" cy="134.39" r="1.36"/></g></g></g></svg>