<svg xmlns="http://www.w3.org/2000/svg" viewBox="0 0 298.8 39.2"><title>not_found</title><g id="Layer_2" data-name="Layer 2"><g id="page_not_found" data-name="page not found"><path d="M2.28,30a2.2,2.2,0,0,1-1.6-.68A2.2,2.2,0,0,1,0,27.72V3.28A2.59,2.59,0,0,1,.64,1.56,2.25,2.25,0,0,1,2.24.72C4.51.51,6.69.4,8.8.4Q21.6.4,21.6,9.92q0,5.16-3,7.82T9.88,20.4c-1,0-2,0-2.84-.12-.24,0-.36.11-.36.32v7.12A2.2,2.2,0,0,1,6,29.32,2.2,2.2,0,0,1,4.4,30ZM6.68,6.16v8.72q0,.28.36.36a18.83,18.83,0,0,0,2.16.16,6.71,6.71,0,0,0,4.46-1.34,4.64,4.64,0,0,0,1.58-3.74q0-4.75-6-4.76a13.81,13.81,0,0,0-2.2.2A.38.38,0,0,0,6.68,6.16Z"/><path d="M29.8,30.4a6.14,6.14,0,0,1-4.54-1.78A6.25,6.25,0,0,1,23.48,24q0-7.28,10.8-7.28h1.44c.24,0,.36-.11.36-.32v-.2A2.78,2.78,0,0,0,35.3,14a4,4,0,0,0-2.62-.68,27.19,27.19,0,0,0-5.84.76,1.76,1.76,0,0,1-1.5-.36,1.65,1.65,0,0,1-.66-1.36v-.08a3,3,0,0,1,.62-1.82,2.42,2.42,0,0,1,1.58-1A33,33,0,0,1,33,8.8c3.49,0,6,.63,7.42,1.88s2.18,3.33,2.18,6.24v10.8A2.32,2.32,0,0,1,40.28,30H38.8a2.26,2.26,0,0,1-1.64-.66,2.34,2.34,0,0,1-.72-1.62v-.44s0,0,0,0-.08,0-.08,0A8,8,0,0,1,29.8,30.4Zm4.48-9.92q-4.87,0-4.88,3a2.24,2.24,0,0,0,.64,1.7,2.39,2.39,0,0,0,1.72.62,4.2,4.2,0,0,0,3.12-1.22,4.44,4.44,0,0,0,1.2-3.26v-.48a.32.32,0,0,0-.36-.36Z"/><path d="M54.44,29.6a7.1,7.1,0,0,1-5.74-2.78Q46.43,24,46.44,19.2t2.16-7.68A7.08,7.08,0,0,1,54.44,8.8a7.69,7.69,0,0,1,6,3l.08.08s0,0,0,0v-.32a2.34,2.34,0,0,1,.72-1.62A2.26,2.26,0,0,1,63,9.2h1.48a2.32,2.32,0,0,1,2.28,2.28V28.2q0,5.4-3,8.2t-8.62,2.8a26.81,26.81,0,0,1-4.32-.32,2.57,2.57,0,0,1-1.6-1,2.78,2.78,0,0,1-.64-1.8v-.8A1.5,1.5,0,0,1,49.24,34a1.74,1.74,0,0,1,1.48-.28,17.41,17.41,0,0,0,4.12.52A5.59,5.59,0,0,0,59,32.9q1.32-1.38,1.32-4.62V27.16s0,0,0,0a.1.1,0,0,0-.08,0A7.57,7.57,0,0,1,54.44,29.6Zm2.12-16q-3.8,0-3.8,5.6a7.11,7.11,0,0,0,1,4.2,3.27,3.27,0,0,0,2.78,1.4,3.75,3.75,0,0,0,2.68-1.06,3.29,3.29,0,0,0,1.12-2.46V17.4a3.61,3.61,0,0,0-1.12-2.7A3.71,3.71,0,0,0,56.56,13.6Z"/><path d="M81.92,30.4q-5.44,0-8.38-2.76t-2.94-8c0-3.49.87-6.17,2.62-8S77.49,8.8,80.8,8.8q9.53,0,9.68,10.4a2.1,2.1,0,0,1-.74,1.62,2.47,2.47,0,0,1-1.7.66H77.36c-.27,0-.37.12-.32.36A4.31,4.31,0,0,0,78.74,25a7.37,7.37,0,0,0,4.14.94,15.91,15.91,0,0,0,3.88-.52,1.68,1.68,0,0,1,1.5.32,1.65,1.65,0,0,1,.66,1.36v.08A3,3,0,0,1,88.3,29a2.42,2.42,0,0,1-1.58,1A26,26,0,0,1,81.92,30.4Zm-1-17.24a3.62,3.62,0,0,0-2.72.94A5.41,5.41,0,0,0,77,17.32c0,.21.09.32.28.32h6.76a.32.32,0,0,0,.36-.36Q84.28,13.15,80.92,13.16Z"/><path d="M108.44,30a2.14,2.14,0,0,1-1.58-.68,2.22,2.22,0,0,1-.66-1.6V11.48a2.22,2.22,0,0,1,.66-1.6,2.14,2.14,0,0,1,1.58-.68h1.64a2.2,2.2,0,0,1,1.62.66,2.36,2.36,0,0,1,.7,1.62l0,.32s0,0,0,0l.08-.08a8,8,0,0,1,6.24-3c2.43,0,4.17.69,5.24,2.06s1.6,3.71,1.6,7v9.84a2.22,2.22,0,0,1-.66,1.6,2.14,2.14,0,0,1-1.58.68h-1.76a2.32,2.32,0,0,1-2.28-2.28V18.08a6,6,0,0,0-.64-3.3,2.67,2.67,0,0,0-2.32-.9A3.66,3.66,0,0,0,113.82,15a3.38,3.38,0,0,0-1.18,2.46V27.72a2.22,2.22,0,0,1-.66,1.6,2.14,2.14,0,0,1-1.58.68Z"/><path d="M147.52,27.56c-1.84,1.89-4.42,2.84-7.72,2.84s-5.88-.95-7.72-2.84-2.76-4.55-2.76-8,.92-6.07,2.76-8,4.41-2.84,7.72-2.84,5.88.95,7.72,2.84,2.76,4.55,2.76,8S149.36,25.67,147.52,27.56ZM142.78,14.8a3.74,3.74,0,0,0-6,0,9,9,0,0,0-1,4.8,9,9,0,0,0,1,4.8,3.74,3.74,0,0,0,6,0,9,9,0,0,0,1-4.8A9,9,0,0,0,142.78,14.8Z"/><path d="M155,14.52a2.21,2.21,0,0,1-1.6-.66,2.11,2.11,0,0,1-.68-1.58,2.16,2.16,0,0,1,.68-1.6A2.19,2.19,0,0,1,155,10h1.6c.21,0,.32-.12.32-.36v-5a2.2,2.2,0,0,1,.68-1.6,2.2,2.2,0,0,1,1.6-.68h1.92a2.22,2.22,0,0,1,1.6.68,2.2,2.2,0,0,1,.68,1.6v5a.32.32,0,0,0,.36.36h3.92a2.14,2.14,0,0,1,1.58.68,2.22,2.22,0,0,1,.66,1.6,2.25,2.25,0,0,1-2.24,2.24H163.8a.32.32,0,0,0-.36.36v6.84a6.8,6.8,0,0,0,.46,3.2c.31.45,1,.68,2.06.68a8.9,8.9,0,0,0,1.32-.08,2,2,0,0,1,1.56.4,1.65,1.65,0,0,1,.68,1.36v.32a2.69,2.69,0,0,1-.64,1.76,2.46,2.46,0,0,1-1.64.88,22.25,22.25,0,0,1-2.88.16q-4.08,0-5.74-1.74T157,22.4V14.88c0-.24-.11-.36-.32-.36Z"/><path d="M188.36,14.52a2.21,2.21,0,0,1-1.6-.66,2.11,2.11,0,0,1-.68-1.58,2.16,2.16,0,0,1,.68-1.6,2.19,2.19,0,0,1,1.6-.68h1.8c.21,0,.32-.12.32-.36V8.92q0-4.44,2-6.48c1.34-1.36,3.46-2,6.34-2a16.66,16.66,0,0,1,2.48.16,2.39,2.39,0,0,1,1.6.92,2.83,2.83,0,0,1,.64,1.8V3.4a1.58,1.58,0,0,1-.68,1.34,2,2,0,0,1-1.52.38,7.33,7.33,0,0,0-.92,0,3.41,3.41,0,0,0-2.62.76,4.91,4.91,0,0,0-.66,3v.76a.32.32,0,0,0,.36.36h3.36a2.32,2.32,0,0,1,2.28,2.28,2.14,2.14,0,0,1-.68,1.58,2.24,2.24,0,0,1-1.6.66h-3.36a.32.32,0,0,0-.36.36V27.72A2.32,2.32,0,0,1,194.88,30h-2.12a2.19,2.19,0,0,1-1.6-.68,2.16,2.16,0,0,1-.68-1.6V14.88c0-.24-.11-.36-.32-.36Z"/><path d="M223.84,27.56c-1.84,1.89-4.42,2.84-7.72,2.84s-5.88-.95-7.72-2.84-2.76-4.55-2.76-8,.92-6.07,2.76-8,4.41-2.84,7.72-2.84,5.88.95,7.72,2.84,2.76,4.55,2.76,8S225.68,25.67,223.84,27.56ZM219.1,14.8a3.74,3.74,0,0,0-6,0,8.92,8.92,0,0,0-1,4.8,8.92,8.92,0,0,0,1,4.8,3.74,3.74,0,0,0,6,0,9,9,0,0,0,1-4.8A9,9,0,0,0,219.1,14.8Z"/><path d="M237,30.4q-3.53,0-5.1-2c-1.06-1.31-1.58-3.55-1.58-6.72V11.48a2.16,2.16,0,0,1,.68-1.6,2.19,2.19,0,0,1,1.6-.68h1.76a2.32,2.32,0,0,1,2.28,2.28v9.8a5.71,5.71,0,0,0,.62,3.18,2.46,2.46,0,0,0,2.14.86,3.6,3.6,0,0,0,2.56-1.14,3.43,3.43,0,0,0,1.16-2.46V11.48a2.16,2.16,0,0,1,.68-1.6,2.19,2.19,0,0,1,1.6-.68h1.92a2.32,2.32,0,0,1,2.28,2.28V27.72A2.32,2.32,0,0,1,247.28,30h-1.64a2.2,2.2,0,0,1-1.62-.66,2.32,2.32,0,0,1-.7-1.62V27.4a0,0,0,0,0,0,0l-.08.08A8.06,8.06,0,0,1,237,30.4Z"/><path d="M257.08,30a2.13,2.13,0,0,1-1.58-.68,2.22,2.22,0,0,1-.66-1.6V11.48a2.22,2.22,0,0,1,.66-1.6,2.13,2.13,0,0,1,1.58-.68h1.64a2.2,2.2,0,0,1,1.62.66,2.36,2.36,0,0,1,.7,1.62l0,.32s0,0,0,0l.08-.08a8,8,0,0,1,6.24-3q3.63,0,5.24,2.06c1.06,1.37,1.6,3.71,1.6,7v9.84a2.22,2.22,0,0,1-.66,1.6A2.14,2.14,0,0,1,272,30h-1.76a2.19,2.19,0,0,1-1.6-.68,2.16,2.16,0,0,1-.68-1.6V18.08a6.12,6.12,0,0,0-.64-3.3,2.67,2.67,0,0,0-2.32-.9A3.63,3.63,0,0,0,262.46,15a3.38,3.38,0,0,0-1.18,2.46V27.72a2.22,2.22,0,0,1-.66,1.6A2.14,2.14,0,0,1,259,30Z"/><path d="M286.28,30.4a7.12,7.12,0,0,1-5.84-2.86c-1.52-1.91-2.28-4.55-2.28-7.94s.73-6.13,2.2-8a7.12,7.12,0,0,1,5.92-2.8,8.65,8.65,0,0,1,6,2.44.09.09,0,0,0,.08,0,0,0,0,0,0,0,0v-9A2.22,2.22,0,0,1,293,.68,2.13,2.13,0,0,1,294.6,0h2a2.14,2.14,0,0,1,1.58.68,2.22,2.22,0,0,1,.66,1.6V27.72a2.22,2.22,0,0,1-.66,1.6,2.14,2.14,0,0,1-1.58.68H295a2.2,2.2,0,0,1-1.62-.66,2.32,2.32,0,0,1-.7-1.62V27.4a0,0,0,0,0,0,0l-.08.08A8,8,0,0,1,286.28,30.4Zm2.2-16.8q-4,0-4,6a7.68,7.68,0,0,0,1.08,4.52,3.42,3.42,0,0,0,2.92,1.48,4.07,4.07,0,0,0,2.8-1.08,3.22,3.22,0,0,0,1.2-2.44v-5a3.22,3.22,0,0,0-1.2-2.44A4.07,4.07,0,0,0,288.48,13.6Z"/></g></g></svg>