<svg xmlns="http://www.w3.org/2000/svg" xmlns:xlink="http://www.w3.org/1999/xlink" viewBox="0 0 301.17 155"><defs><style>.cls-1{fill:none;}.cls-2{clip-path:url(#clip-path);}.cls-3{clip-path:url(#clip-path-2);}.cls-4{clip-path:url(#clip-path-3);}</style><clipPath id="clip-path" transform="translate(9.63 20.68)"><path class="cls-1" d="M80.56,69.12l-6-.09c-.9,0-1.35-.42-1.33-1.22L74.08,9a8.31,8.31,0,0,0-2.39-6A7.94,7.94,0,0,0,65.81.35L58.31.24a15.61,15.61,0,0,0-13.45,6.7L5.22,61.12A26.33,26.33,0,0,0,0,76.5l0,2.85a8.31,8.31,0,0,0,2.39,6A7.92,7.92,0,0,0,8.28,88l39,.57A1.19,1.19,0,0,1,48.6,90l-.16,11.09a8.32,8.32,0,0,0,2.39,6,8,8,0,0,0,5.89,2.64l7.49.1a8,8,0,0,0,6-2.46,8.36,8.36,0,0,0,2.56-6l.16-11.1A1.19,1.19,0,0,1,74.27,89l6,.09a8.73,8.73,0,0,0,8.67-8.43l0-2.85a8.71,8.71,0,0,0-8.42-8.67ZM48.93,67.46c0,.8-.47,1.19-1.37,1.18l-24.75-.36c-.1,0-.14,0-.14-.15V68L49,31.16q0-.15.3-.15a.13.13,0,0,1,.15.15Z"/></clipPath><clipPath id="clip-path-2" transform="translate(9.63 20.68)"><path class="cls-1" d="M145.62,0q-22.05-.33-33,12.72T101.31,55.62q-.44,29.85,10.09,43.2T144,112.5q22.05.31,33-12.73T188.3,56.88q.44-29.83-10.1-43.2T145.62,0Zm16.73,56.5q-.3,20.4-4.69,28.58t-13.39,8.06q-9-.14-13.16-8.44T127.25,56q.3-20.4,4.69-28.59t13.4-8q9,.12,13.15,8.44T162.35,56.51Z"/></clipPath><clipPath id="clip-path-3" transform="translate(9.63 20.68)"><path class="cls-1" d="M281.5,74.59a8.21,8.21,0,0,0-6-2.63l-6-.09c-.9,0-1.35-.42-1.34-1.22l.86-58.8a8.33,8.33,0,0,0-2.39-6,8,8,0,0,0-5.88-2.64l-7.5-.11a15.61,15.61,0,0,0-13.45,6.71L200.19,64A26.35,26.35,0,0,0,195,79.33l0,2.85a8.28,8.28,0,0,0,2.39,6,8,8,0,0,0,5.88,2.64l39,.56a1.2,1.2,0,0,1,1.33,1.37l-.16,11.1a8.31,8.31,0,0,0,2.39,6,7.94,7.94,0,0,0,5.88,2.63l7.5.11a7.91,7.91,0,0,0,6-2.46,8.29,8.29,0,0,0,2.56-6l.17-11.1a1.19,1.19,0,0,1,1.37-1.33l6,.08a8.71,8.71,0,0,0,8.67-8.42l0-2.85A8.22,8.22,0,0,0,281.5,74.59ZM243.91,70.3c0,.8-.47,1.19-1.37,1.18l-24.75-.36a.14.14,0,0,1-.15-.16v-.15L244,34c0-.1.11-.15.31-.14a.13.13,0,0,1,.15.15Z"/></clipPath><image id="image" width="211" height="317" xlink:href="../../../Illustrator/Task%20Management%20App/banner_light_2.jpg"/></defs><title>Asset 17</title><g id="Layer_2" data-name="Layer 2"><g id="page_not_found" data-name="page not found"><g class="cls-2"><use transform="translate(0 0) scale(0.49)" xlink:href="#image"/></g><g class="cls-3"><use transform="translate(101) scale(0.49)" xlink:href="#image"/></g><g class="cls-4"><use transform="translate(198) scale(0.49)" xlink:href="#image"/></g></g></g></svg>