<svg xmlns="http://www.w3.org/2000/svg" viewBox="0 0 51.41 65.35"><defs><style>.cls-1,.cls-5{fill:#fff;}.cls-1,.cls-3{stroke:#a78d6f;}.cls-1,.cls-2,.cls-3,.cls-4,.cls-5,.cls-6{stroke-linecap:round;stroke-width:1.41px;}.cls-1,.cls-3,.cls-5,.cls-6{stroke-linejoin:round;}.cls-1{stroke-opacity:0.4;}.cls-2{fill:#c2e6d1;stroke:#c2e6d1;}.cls-2,.cls-4{stroke-miterlimit:10;}.cls-3,.cls-4{fill:none;}.cls-3{stroke-opacity:0.6;}.cls-4,.cls-5{stroke:#cabba9;}.cls-6{fill:#f26c66;stroke:#f26c66;}</style></defs><title>task-icon</title><g id="Layer_2" data-name="Layer 2"><g id="View-task"><rect class="cls-1" x="8.2" y="0.7" width="42.5" height="55.52" rx="4.68"/><path class="cls-2" d="M10.78.7H48.13A2.58,2.58,0,0,1,50.7,3.28V4.45a0,0,0,0,1,0,0H8.2a0,0,0,0,1,0,0V3.28A2.58,2.58,0,0,1,10.78.7Z"/><line class="cls-3" x1="7.41" y1="21.08" x2="36.45" y2="21.08"/><line class="cls-4" x1="36.69" y1="11.24" x2="44.89" y2="11.24"/><path class="cls-5" d="M29.15,9.14H5.39A4.68,4.68,0,0,0,.7,13.82V60a4.69,4.69,0,0,0,4.69,4.68H38.52A4.69,4.69,0,0,0,43.21,60V23.19Z"/><path class="cls-6" d="M3.28,9.14A2.58,2.58,0,0,0,.7,11.71v1.17H29.15V9.14Z"/><line class="cls-4" x1="7.41" y1="21.08" x2="23.57" y2="21.08"/><line class="cls-4" x1="7.41" y1="26.7" x2="35.99" y2="26.7"/><line class="cls-4" x1="7.41" y1="32.33" x2="35.99" y2="32.33"/><line class="cls-4" x1="7.41" y1="37.95" x2="35.99" y2="37.95"/><line class="cls-4" x1="7.41" y1="43.57" x2="35.99" y2="43.57"/><line class="cls-4" x1="7.41" y1="49.19" x2="35.99" y2="49.19"/><line class="cls-4" x1="7.41" y1="54.81" x2="35.99" y2="54.81"/><path class="cls-5" d="M43.21,23.19H33.84a4.69,4.69,0,0,1-4.69-4.68V9.14Z"/></g></g></svg>